<?xml version="1.0" encoding="utf-8"?>
<!-- Generator: Adobe Illustrator 21.1.0, SVG Export Plug-In . SVG Version: 6.00 Build 0)  -->
<svg version="1.2" baseProfile="tiny" id="Layer_1" xmlns="http://www.w3.org/2000/svg" xmlns:xlink="http://www.w3.org/1999/xlink"
	 x="0px" y="0px" viewBox="0 0 874 212" overflow="scroll" xml:space="preserve">
<g id="XMLID_1_">
	<path id="XMLID_2_" fill="#FFFFFF" d="M180.7,31.7c0-8.5-3.3-16.5-9.3-22.4c-12.4-12.4-32.6-12.4-45,0l0,0l-3.3,3.3l-3.2-3.2l0,0
		c-12.4-12.4-32.6-12.4-45,0c-12.4,12.4-12.4,32.5,0,44.9l0,0l33,32.9L156.1,39l0,0c4-4,4-10.5,0-14.5c-4-4-10.5-4-14.6,0l-3.3,3.3
		l-4.9-4.9l3.3-3.3c6.7-6.7,17.6-6.7,24.3,0c6.7,6.7,6.7,17.6,0,24.3l0,0L112.9,92l2.7,2.7l48.2-48.1l0,0c4-4,6.2-9.2,6.2-14.8
		s-2.2-10.9-6.2-14.8c-8.2-8.2-21.5-8.2-29.7,0l-3.3,3.2l-5-4.9l3.3-3.2l0,0c10.9-10.9,28.7-10.9,39.6,0c10.9,10.9,10.9,28.6,0,39.5
		l0,0l-48.2,48.1l2.7,2.7l48.2-48.1l0,0C177.4,48.2,180.7,40.2,180.7,31.7 M144.3,27.2L144.3,27.2c2.5-2.5,6.6-2.5,9.2,0
		c2.5,2.5,2.5,6.6,0,9.2l0,0l-30.3,30.3L92.8,36.3c-2.5-2.5-2.5-6.6,0-9.2c2.5-2.5,6.6-2.5,9.2,0l21.1,21.1l2.7-2.7l-21.1-21.1
		c-4-4-10.5-3.9-14.5,0c-4,4-4,10.5,0,14.5l30.3,30.3l-4.9,4.9L85.2,43.9c-6.7-6.7-6.7-17.6,0-24.3c6.7-6.7,17.6-6.7,24.3,0l0,0
		l21.1,21.1l2.7-2.7l-21.1-21.1l0,0c-8.2-8.2-21.5-8.1-29.7,0c-4,4-6.2,9.2-6.2,14.8s2.2,10.9,6.2,14.8l30.3,30.3l-4.9,4.9
		L77.6,51.5l0,0c-10.9-10.9-10.9-28.6,0-39.5c10.9-10.9,28.7-10.9,39.6,0l0,0l21.2,21.1l2.7-2.7l0,0L144.3,27.2z"/>
</g>
<rect id="XMLID_6_" x="3.4" y="7.3" fill="#FFFFFF" width="28.8" height="87.1"/>
<g id="XMLID_7_">
	<path id="XMLID_8_" fill="#FFFFFF" d="M34.3,120.9c11.3,0,23.4,2.6,32,7.2V153c-8.5-5.4-19.2-8.5-28.9-8.3c-5.9,0-7.7,1.5-7.7,3.9
		c0,9.1,42.4,5,42.4,35.2c0,22.3-16.6,28.2-36.7,28.2c-13.2,0-25.1-2.9-34.7-8.2v-26c10.8,7.1,22.4,10.2,31.8,10.2
		c7.6,0,9.8-1.4,9.8-4.2c0-9-42.4-5.5-42.4-35.8C0,129.6,15.3,120.9,34.3,120.9"/>
	<path id="XMLID_9_" fill="#FFFFFF" d="M163.7,122.9v53.3c0,26.9-19.8,35.8-40.5,35.8c-20.7,0-40.5-9-40.5-35.8v-53.3h28.8v51.9
		c0,8.1,4.2,11.4,11.7,11.4c7.6,0,11.8-3.4,11.8-11.4v-51.9H163.7z"/>
	<path id="XMLID_10_" fill="#FFFFFF" d="M217.1,122.9c22.2,0,39.1,7.7,39.1,32.2c0,24.4-17,32.1-39.1,32.1h-9.3V210H179v-87.1H217.1
		z M216.9,146.6h-9.1v17h9.1c6.6,0,10.8-2.5,10.8-8.5C227.7,149,223.5,146.6,216.9,146.6"/>
</g>
<polygon id="XMLID_14_" fill="#FFFFFF" points="332.3,122.9 332.3,145.6 295.1,145.6 295.1,155.6 327.8,155.6 327.8,176.8 
	295.1,176.8 295.1,187.1 333.1,187.1 333.1,210 266.3,210 266.3,122.9 "/>
<g id="XMLID_15_">
	<path id="XMLID_16_" fill="#FFFFFF" d="M347.1,210v-87.1h40.5c18.6,0,37.1,7,37.1,30.7c0,13.6-6.2,21.6-15,26l22.4,30.4h-31.7
		l-17.9-25.8h-6.7V210H347.1z M375.9,162.7H387c5.6,0,8.9-3.4,8.9-8.2c0-4.9-3.2-8.2-8.9-8.2h-11.1V162.7z"/>
	<path id="XMLID_19_" fill="#FFFFFF" d="M471.3,120.9c11.3,0,23.4,2.6,32,7.2V153c-8.5-5.4-19.2-8.5-28.9-8.3
		c-5.9,0-7.7,1.5-7.7,3.9c0,9.1,42.4,5,42.4,35.2c0,22.3-16.6,28.2-36.7,28.2c-13.2,0-25.1-2.9-34.7-8.2v-26
		c10.8,7.1,22.4,10.2,31.8,10.2c7.6,0,9.8-1.4,9.8-4.2c0-9-42.4-5.5-42.4-35.8C437,129.6,452.3,120.9,471.3,120.9"/>
	<path id="XMLID_20_" fill="#FFFFFF" d="M559.3,122.9c22.2,0,39.1,7.7,39.1,32.2c0,24.4-17,32.1-39.1,32.1H550V210h-28.8v-87.1
		H559.3z M559.1,146.6H550v17h9.1c6.6,0,10.8-2.5,10.8-8.5C569.9,149,565.7,146.6,559.1,146.6"/>
	<path id="XMLID_23_" fill="#FFFFFF" d="M652.9,120.9c31.4,0,47.2,20.5,47.2,45.5c0,25-15.8,45.5-47.2,45.5
		c-31.4,0-47.2-20.5-47.2-45.5C605.6,141.5,621.5,120.9,652.9,120.9 M652.9,146.9c-11.2,0-17.7,7.6-17.7,19.5s6.5,19.5,17.7,19.5
		c11.2,0,17.7-7.6,17.7-19.5S664.1,146.9,652.9,146.9"/>
	<path id="XMLID_26_" fill="#FFFFFF" d="M712.1,210v-87.1h40.5c18.6,0,37.1,7,37.1,30.7c0,13.6-6.2,21.6-15,26l22.4,30.4h-31.7
		l-17.9-25.8h-6.7V210H712.1z M740.9,162.7H752c5.6,0,8.8-3.4,8.8-8.2c0-4.9-3.2-8.2-8.8-8.2h-11.1V162.7z"/>
</g>
<polygon id="XMLID_30_" fill="#FFFFFF" points="798.5,122.9 798.5,148 821.9,148 821.9,210 850.6,210 850.6,148 874,148 874,122.9 
	"/>
</svg>
