<?xml version="1.0" encoding="utf-8"?>
<!-- Generator: Adobe Illustrator 19.2.0, SVG Export Plug-In . SVG Version: 6.00 Build 0)  -->
<svg version="1.1" id="Слой_1" xmlns="http://www.w3.org/2000/svg" xmlns:xlink="http://www.w3.org/1999/xlink" x="0px" y="0px"
	 width="48.2px" height="38.7px" viewBox="0 0 48.2 38.7" style="enable-background:new 0 0 48.2 38.7;" xml:space="preserve">
<style type="text/css">
	.st0{fill:#000000;}
</style>
<g>
	<path class="st0" d="M10.3,18.7c1.4-0.1,3-0.8,4.8-1.9c0.9-0.5,1.9-1.2,2.8-1.6c0.6-0.3,1,0.2,1.4,0.6c0.8,0.8,1.6,1.8,2.7,2.9
		c0.3,0.3,0.3,0.7-0.1,1c-2.9,2.2-5.7,4.1-8.2,5.7c0.9,0.4,1.9,0.4,3,0.3c1.3-0.1,2.1-0.8,3.6-1.6c1.2-0.6,2.6-0.7,3.8-0.6
		c0.2,0,0.5,0,0.7,0.1c1.5,0.2,2.8,1.1,3.7,1.6c0.1,0.1,0.3,0.2,0.4,0.2c0,0,0.8-0.7,0.9-0.7c0.3-0.2,0.6-0.4,1-0.6
		c0.8-0.3,1.6-0.3,2.4-0.3c1,0,2-0.1,3-0.2c2.8-0.4,5-1.4,6.7-2.4c3.4-2.2,4.7-4.2,4.4-4.6c-0.4-0.5-2.3,0.8-5.5,2
		c-1.6,0.6-3.6,1.2-5.8,1.3c-3,0.2-6.2-0.5-8.8-2.1c-0.9-0.5-1.5-1.1-2.2-1.7c-1-1-2-2-3.2-3.1c-0.6-0.5-1.3-1.1-2.5-1.4
		c-0.3-0.1-0.6-0.1-0.9-0.1c-0.1,0-0.4,0-0.6,0s-0.3,0.1-0.5,0.1c-0.4,0.3-0.7,0.5-1,0.7c-1.2,0.8-2,1.5-2.8,2.2
		c-1.5,1.3-2.7,2.2-3.6,2.7c-0.8,0.4-1.3,0.3-1.4,0.6c-0.1,0.1-0.1,0.3,0.2,0.5C9,18.6,9.6,18.7,10.3,18.7 M32.1,18.6
		c2.3,0,4.1-1.9,4.1-4.1c0.1-2.3-1.8-4.2-4.1-4.2c-2.3,0-4.1,1.9-4.1,4.1C28,16.7,29.8,18.6,32.1,18.6 M43.7,29.6
		c-0.9-0.6-2.2-1.6-3.9-1.7c-0.9-0.1-1.8-0.1-2.8,0.2c-1,0.2-2,0.9-2.8,1.3c-0.8,0.4-1.7,0.6-2.8,0.6c-1,0-1.9-0.2-2.8-0.7
		c0,0-0.1,0-0.1-0.1c-0.8-0.5-1.9-1.2-3.1-1.5c-0.2,0-0.4-0.1-0.6-0.1c-1.4-0.2-3-0.1-4.5,0.6c-1.5,0.8-2.3,1.5-3.6,1.5
		c-0.9,0.1-1.7,0.1-2.5-0.2c-0.4-0.1-0.8-0.3-1.2-0.5c-0.6-0.3-1.3-0.8-2.2-1.2c-0.3-0.1-0.5-0.2-0.8-0.2c-0.6-0.2-0.3-0.2-0.9-0.2
		c-0.9,0-1.8,0.1-2.7,0.4S4.7,28.7,4.1,29c-1.4,0.8-2.8,1.1-2.8,1.7c0,0.3,0.4,0.6,1.1,0.7s1.8,0,2.7-0.6c0.8-0.5,1.4-0.9,2-1.1
		c0.1,0,0.2-0.1,0.3-0.1c0.5-0.2,1.1-0.2,1.7-0.2c0.7,0,0.4,0.1,1,0.3c0.6,0.2,1.1,0.6,1.9,1l0,0c0.7,0.4,1.6,0.8,2.5,0.9
		s1.7,0.1,2.5,0c0.8-0.1,1.7-0.4,2.4-0.8s1.3-0.8,1.8-1c0.4-0.2,0.7-0.3,1.1-0.4c0.7-0.2,1.5-0.2,2.3-0.1c1.1,0.1,2,0.7,3.2,1.3
		c0.6,0.3,1.2,0.5,1.9,0.7c0.7,0.1,1.3,0.2,2,0.2c1.2,0,2.5-0.4,3.4-0.9c1-0.6,1.6-1.1,2.4-1.3c0.8-0.2,1.6-0.3,2.3-0.3
		c1.5,0,2.6,0.7,3.6,1.2c1.1,0.5,1,0.7,1.6,0.7s0.9-0.1,0.9-0.2C45.9,30.5,45.5,30.7,43.7,29.6 M44.4,26.6c-0.2-0.1-0.4-0.2-0.6-0.4
		c-0.9-0.6-2.2-1.6-3.9-1.7c-0.9-0.1-1.8-0.1-2.8,0.2c-0.3,0.1-0.6,0.2-1,0.3c-0.7,0.3-1.3,0.7-1.8,1c-0.8,0.4-1.7,0.6-2.8,0.6
		c-1,0-2-0.2-3-0.7c0,0-0.1,0-0.1-0.1c-0.9-0.6-2.2-1.4-3.6-1.6c-0.6-0.1-1.2-0.1-1.8-0.1c-0.9,0-1.8,0.2-2.7,0.7
		c-1.5,0.8-2.3,1.5-3.6,1.6s-2.5,0-3.7-0.7c0,0,0,0-0.1,0c-0.6-0.3-1.3-0.8-2.2-1.2C9.8,24.2,9.9,24,9,24c-0.9,0-1.8,0.1-2.7,0.4
		c-0.9,0.3-1.7,0.9-2.3,1.2c-0.6,0.4-1.3,0.7-1.8,0.9c-0.3,0.1-0.6,0.3-0.7,0.4c-0.1,0.3-0.2,0.4-0.2,0.6c0,0.3,0.4,0.6,1.1,0.7
		s1.8,0,2.7-0.6c0.8-0.5,1.4-0.9,2-1.1s1.3-0.3,2-0.3c0.2,0-0.6,0-0.5,0c0.5,0,1,0.1,1.4,0.3c0.3,0.1,0.7,0.3,1,0.5s0.6,0.3,0.9,0.5
		c0.7,0.4,1.6,0.8,2.5,0.9c0.6,0.1,1.1,0.1,1.7,0.1c0.3,0,0.5,0,0.8-0.1c0.8-0.1,1.7-0.4,2.4-0.8s1.3-0.8,1.8-1
		c1-0.5,2.3-0.6,3.4-0.5c0.8,0.1,1.5,0.4,2.2,0.8c0.3,0.2,0.6,0.3,1,0.5c0.1,0,0.1,0.1,0.2,0.1c1.1,0.6,2.5,0.8,3.6,0.7
		c1.2,0,2.5-0.4,3.4-0.9c1-0.6,1.6-1.1,2.4-1.3c0.8-0.2,1.6-0.3,2.3-0.3c1.5,0,2.6,0.7,3.6,1.2c1.1,0.5,1,0.7,1.6,0.7
		s0.9-0.1,0.9-0.2C45.9,27.3,45.9,27.4,44.4,26.6"/>
	<path class="st0" d="M43.9,36.4c-0.9-0.6-2.2-1.6-3.9-1.7c-0.9-0.1-1.8-0.1-2.8,0.2c-1,0.2-2,0.9-2.8,1.3c-0.8,0.4-1.7,0.6-2.8,0.6
		c-1,0-1.9-0.2-2.8-0.7c0,0-0.1,0-0.1-0.1c-0.8-0.5-1.9-1.2-3.1-1.5c-0.2,0-0.4-0.1-0.6-0.1c-1.4-0.2-3-0.1-4.5,0.6
		c-1.5,0.8-2.3,1.5-3.6,1.5c-0.9,0.1-1.7,0.1-2.5-0.2c-0.4-0.1-0.8-0.3-1.2-0.5c-0.6-0.3-1.3-0.8-2.2-1.2c-0.3-0.1-0.5-0.2-0.8-0.2
		c-0.7-0.1-0.3-0.2-0.9-0.2c-0.9,0-1.8,0.1-2.7,0.4s-1.7,0.9-2.3,1.2c-1.3,0.8-2.7,1.1-2.8,1.7c0,0.3,0.4,0.6,1.1,0.7
		c0.7,0.1,1.8,0,2.7-0.6c0.8-0.5,1.4-0.9,2-1.1c0.1,0,0.2-0.1,0.3-0.1c0.5,0,1.1-0.1,1.7-0.1c0.7,0,0.4,0.1,1,0.3s1.1,0.6,1.9,1l0,0
		c0.7,0.4,1.6,0.8,2.5,0.9c0.9,0.1,1.7,0.1,2.5,0c0.8-0.1,1.7-0.4,2.4-0.8c0.7-0.4,1.3-0.8,1.8-1c0.4-0.2,0.7-0.3,1.1-0.4
		c0.7-0.2,1.5-0.2,2.3-0.1c1.1,0.1,2,0.7,3.2,1.3c0.6,0.3,1.2,0.5,1.9,0.7c0.7,0.1,1.3,0.2,2,0.2c1.2,0,2.5-0.4,3.4-0.9
		c1-0.6,1.6-1.1,2.4-1.3c0.8-0.2,1.6-0.3,2.3-0.3c1.5,0,2.6,0.7,3.6,1.2c1.1,0.5,1,0.7,1.6,0.7s0.9-0.1,0.9-0.2
		C46.1,37.4,45.7,37.6,43.9,36.4 M44.5,33.5c-0.2-0.1-0.4-0.2-0.6-0.4c-0.9-0.6-2.2-1.6-3.9-1.7c-0.9-0.1-1.8-0.1-2.8,0.2
		c-0.3,0.1-0.6,0.2-1,0.3c-0.7,0.3-1.3,0.7-1.8,1c-0.8,0.4-1.7,0.6-2.8,0.6c-1,0-2-0.2-3-0.7c0,0-0.1,0-0.1-0.1
		c-0.9-0.6-2.2-1.4-3.6-1.6C24.3,31,23.7,31,23.1,31c-0.9,0-1.8,0.2-2.7,0.7c-1.5,0.8-2.3,1.5-3.6,1.6c-1.3,0.1-2.5,0-3.7-0.7
		c0,0,0,0-0.1,0c-0.6-0.3-1.3-0.8-2.2-1.2c-0.9-0.3-0.8-0.5-1.7-0.5c-0.9,0-1.8,0.1-2.7,0.4s-1.7,0.9-2.3,1.2
		c-0.6,0.4-1.3,0.7-1.8,0.9c-0.3,0.1-0.6,0.3-0.7,0.4c-0.1,0.1-0.2,0.2-0.2,0.4c0,0.3,0.4,0.6,1.1,0.7c0.7,0.1,1.8,0,2.7-0.6
		c0.8-0.5,1.4-0.9,2-1.1s1.3-0.3,2-0.3c0.2,0-0.6,0-0.5,0c0.5,0,1,0.1,1.4,0.3c0.3,0.1,0.7,0.3,1,0.5s0.6,0.3,0.9,0.5
		c0.7,0.4,1.6,0.8,2.5,0.9c0.7,0.2,1.3,0.2,1.8,0.2c0.3,0,0.5,0,0.8-0.1c0.8-0.1,1.7-0.4,2.4-0.8c0.7-0.4,1.3-0.8,1.8-1
		c1-0.5,2.3-0.6,3.4-0.5c0.8,0.1,1.5,0.4,2.2,0.8c0.3,0.2,0.6,0.3,1,0.5c0.1,0,0.1,0.1,0.2,0.1c1.1,0.6,2.5,0.8,3.6,0.7
		c1.2,0,2.5-0.4,3.4-0.9c1-0.6,1.6-1.1,2.4-1.3c0.8-0.2,1.6-0.3,2.3-0.3c1.5,0,2.6,0.7,3.6,1.2c1.1,0.5,1,0.7,1.6,0.7
		s0.9-0.1,0.9-0.2C46.1,34.1,46,34.2,44.5,33.5"/>
</g>
</svg>
