<?xml version="1.0" encoding="utf-8"?>
<!-- Generator: Adobe Illustrator 19.2.0, SVG Export Plug-In . SVG Version: 6.00 Build 0)  -->
<svg version="1.1" id="Слой_1" xmlns="http://www.w3.org/2000/svg" xmlns:xlink="http://www.w3.org/1999/xlink" x="0px" y="0px"
	 width="48.2px" height="38.7px" viewBox="0 0 48.2 38.7" style="enable-background:new 0 0 48.2 38.7;" xml:space="preserve">
<style type="text/css">
	.st0{fill:#000000;}
</style>
<g>
	<path class="st0" d="M34.4,6.6c1.8,0,3.3-1.5,3.3-3.3S36.2,0,34.4,0s-3.3,1.5-3.3,3.3S32.6,6.6,34.4,6.6 M46.4,26.5
		C45.7,24,44,22,42.2,20.9c-1.7-1-3.4-1.4-4.9-1.4c0.2-0.5,0.3-0.9,0.5-1.4c0.9-2.1,2.3-4.4,4.3-6.1c0.6-0.5,0.8-1.1,0.6-1.7
		c-0.2-0.6-1.2-0.7-2-0.1c-2.5,2.1-3.9,4.7-4.8,7.1c-0.3,0.8-0.5,1.6-0.7,2.3c-1.1,0.2-2.3,0.6-3.5,1.3c-1.8,1.1-3.5,3-4.2,5.6
		c-0.7,2.5-0.4,5.6,1.4,8.1c1.7,2.5,4.8,4.2,8,4.2c3.3,0,6.4-1.7,8-4.2C46.7,32,47.1,29,46.4,26.5 M43.4,33.4
		c-1.4,2-3.9,3.3-6.5,3.3s-5.1-1.3-6.5-3.3s-1.8-4.5-1.3-6.6s1.8-3.8,3.3-4.9c0.8-0.6,1.7-1,2.6-1.2c-0.2,1.1-0.2,2.2-0.2,3.2
		c0.1,1.9,0.7,3.4,1.2,4.3s1,1.3,1.1,1.2c0.3-0.2-0.9-2.1-0.7-5.5c0-1,0.2-2.2,0.6-3.5c1.4,0.1,3,0.5,4.5,1.5s2.8,2.8,3.3,4.9
		C45.3,29,44.9,31.5,43.4,33.4 M16.6,20.9c-3-1.9-7.4-1.9-10.5,0c-1.8,1.1-3.5,3-4.2,5.6c-0.7,2.5-0.3,5.6,1.4,8
		c1.7,2.5,4.8,4.2,8,4.2c3.3,0,6.4-1.7,8-4.2c1.7-2.5,2.1-5.6,1.4-8.1C20.1,23.9,18.4,22,16.6,20.9 M17.8,33.4
		c-1.4,2-3.9,3.3-6.5,3.3s-5.1-1.3-6.5-3.3S3,28.9,3.5,26.8C4,24.8,5.4,23,6.8,22c2.8-2,6.3-2,9.1,0c1.5,1,2.8,2.8,3.3,4.9
		S19.3,31.5,17.8,33.4 M31.2,19.9c0.2-0.3,0.7-0.8,0.9-1.8c0.1-0.5,0-1.1-0.2-1.7c-0.2-0.5-0.5-0.8-0.8-1.1
		c-1.1-0.9-1.8-1.1-2.6-1.4c-0.8-0.3-1.5-0.4-2.2-0.6c-1.5-0.4-3-0.7-4.4-1.1c-0.7-0.2-1.3-0.4-1.9-0.7c0.5-0.6,1-1,1.6-1.4
		c1-0.6,2.2-1,3.5-1.2c0,0.1,0,0.3,0,0.4c0.1,1,0.6,2.1,1.4,2.9c0.8,0.7,1.6,1.1,2.4,1.3c1.6,0.4,2.9,0.3,4,0
		c1.1-0.2,2.1-0.6,2.9-0.9c3.3-1.5,4.6-3.2,4.3-3.7c-0.3-0.6-2.3,0.1-5.3,0.6c-1.4,0.2-3.4,0.5-4.7,0c-0.3-0.1-0.5-0.3-0.5-0.4
		c0,0.2,0,0.1,0-0.1c0-0.4,0.2-1.2,0.6-2c0.2-0.2,0.3-0.5,0.4-0.8c0.6-1.7-1.6-4.1-5-3.8c-2.9,0.2-5.8,1.2-7.9,3
		c-1.1,0.9-2,1.9-2.7,2.9c-0.4,0.6-0.9,1.3-1.1,2.3c-0.3,1-0.2,2.6,0.5,3.7c0.7,1,1.4,1.5,2.1,1.9c0.6,0.4,1.2,0.6,1.7,0.7
		c1.1,0.3,2,0.5,2.9,0.7c1.8,0.3,3.3,0.5,4.7,0.7c0.4,0.1,0.7,0.1,1.1,0.2c-0.1,0.2-0.3,0.4-0.4,0.6c-1.3,1.9-2.2,3.6-2.8,5.1
		c-1.3,3.1-1.4,5.4-1,6.7s0.9,1.5,1.2,1.4c0.3-0.1,0.3-0.6,0.6-1.7c0.2-1.1,0.8-2.8,2.4-5.3c0.8-1.2,1.9-2.7,3.3-4.3
		C30.4,20.7,30.8,20.2,31.2,19.9"/>
</g>
</svg>
